<svg width="18" height="18" viewBox="0 0 18 18" fill="none" xmlns="http://www.w3.org/2000/svg" focusable="false"><mask id="maker-icon-dolphin-m1" maskUnits="userSpaceOnUse" x="2" y="1" width="14" height="15" style="mask-type: luminance;"><path d="M15.9728 1.75604H2.57629V15.756H15.9728V1.75604Z" fill="white"></path></mask><g mask="url(#maker-icon-dolphin-m1)"><path d="M15.2296 3.6809C15.4212 3.53692 15.5188 3.28227 15.4879 3.02287C15.4569 2.76345 15.1463 2.52547 14.9273 2.44575C14.3812 2.24583 13.5958 2.15302 12.6141 2.42195C11.962 2.60043 11.4039 2.91933 10.9553 3.36081C12.3011 3.63806 13.4792 4.15807 14.4895 4.77684C14.7215 4.09381 15.2023 3.70113 15.2296 3.67971V3.6809Z" fill="url(#maker-icon-dolphin-g1)"></path><path d="M13.5518 12.5578C13.5661 12.5613 13.5376 12.5542 13.5518 12.5578C13.5387 12.5364 13.2603 10.586 13.5315 8.26567C13.6708 7.07335 13.916 6.19518 14.1218 5.624C12.9913 5.11709 11.6823 4.78033 10.1985 4.78033H10.1926C7.15342 4.78272 5.68146 6.39866 4.98295 7.75281C4.46532 8.75593 4.29396 9.75905 4.23685 10.3053L3.9108 10.5004C3.1766 10.9406 2.85769 11.9676 3.18256 12.8374C3.35271 13.2908 3.66686 13.6394 4.06907 13.8204C4.47126 14 4.91036 13.9892 5.30423 13.7894L6.374 13.248C7.19626 12.866 8.2922 12.5423 9.51785 12.3864C9.89388 13.204 10.5459 13.8941 11.4539 14.4272C12.5249 15.0543 13.5863 15.2411 13.6304 15.2483C13.6601 15.253 13.6898 15.2554 13.7184 15.2554C13.9314 15.2554 14.1313 15.1245 14.2384 14.908C14.3598 14.6616 14.3348 14.3558 14.1765 14.1392C14.1694 14.1297 13.7708 13.5276 13.5518 12.5578ZM7.61036 10.1743C7.27599 10.1743 7.02848 9.86258 7.01419 9.49369C6.99992 9.12601 7.29859 8.81305 7.61036 8.81305C7.94474 8.81305 8.19225 9.12481 8.20653 9.49369C8.22081 9.86139 7.92213 10.1743 7.61036 10.1743Z" fill="url(#maker-icon-dolphin-g2)"></path></g><defs><linearGradient id="maker-icon-dolphin-g1" x1="13.2244" y1="2.25537" x2="13.2244" y2="4.77684" gradientUnits="userSpaceOnUse"><stop stop-color="#59B2DE"></stop><stop offset="1" stop-color="#38718D"></stop></linearGradient><linearGradient id="maker-icon-dolphin-g2" x1="8.68526" y1="4.78033" x2="8.68526" y2="15.2554" gradientUnits="userSpaceOnUse"><stop stop-color="#59B2DE"></stop><stop offset="1" stop-color="#38718D"></stop></linearGradient></defs></svg>